<?xml version="1.0" standalone="no"?>
<!DOCTYPE svg PUBLIC "-//W3C//DTD SVG 20010904//EN"
 "http://www.w3.org/TR/2001/REC-SVG-20010904/DTD/svg10.dtd">
<svg version="1.0" xmlns="http://www.w3.org/2000/svg"
 width="300.000000pt" height="300.000000pt" viewBox="0 0 300.000000 300.000000"
 preserveAspectRatio="xMidYMid meet">
<metadata>
Created by potrace 1.10, written by Peter Selinger 2001-2011
</metadata>
<g transform="translate(0.000000,300.000000) scale(0.100000,-0.100000)"
fill="#000000" stroke="none">
<path d="M1525 2940 c-3 -5 -20 -10 -36 -10 -17 0 -45 -11 -62 -24 -23 -17
-44 -24 -73 -23 -27 1 -47 -4 -59 -17 -14 -14 -27 -16 -61 -11 -79 11 -164
-51 -164 -120 0 -27 -6 -37 -34 -54 -41 -26 -50 -26 -42 -3 4 12 1 11 -13 -5
-10 -12 -21 -19 -25 -16 -3 4 -6 1 -6 -6 0 -8 -7 -11 -15 -7 -13 5 -12 1 2
-18 10 -13 27 -29 37 -36 16 -10 18 -9 13 4 -4 9 -2 16 3 16 5 0 7 6 4 14 -6
15 41 46 69 46 8 0 18 7 21 16 3 8 11 12 17 8 11 -6 9 -28 -5 -69 -5 -13 -2
-12 8 5 8 14 15 33 16 44 0 15 3 16 14 7 11 -9 10 -4 -2 24 -9 19 -22 35 -29
35 -7 0 -13 4 -13 9 0 15 29 33 44 28 9 -4 17 2 21 14 5 14 13 19 26 16 10 -3
19 -1 19 4 0 5 7 9 15 9 8 0 15 -5 15 -10 0 -6 15 -4 36 5 48 20 65 19 58 -2
-4 -10 5 -5 18 11 18 21 31 28 45 24 15 -4 23 0 26 13 3 11 12 19 21 19 9 0
16 5 16 11 0 6 14 8 33 6 17 -2 39 0 48 4 12 6 25 2 43 -12 14 -11 26 -17 26
-14 0 4 16 -2 35 -14 19 -11 35 -16 35 -10 0 6 5 7 10 4 6 -4 8 -11 5 -16 -4
-5 6 -9 20 -9 15 0 24 4 20 10 -3 6 1 10 9 10 9 0 16 -4 16 -10 0 -5 11 -10
25 -10 14 0 38 -11 53 -25 14 -13 29 -20 32 -15 7 11 70 -30 70 -46 0 -6 8
-18 17 -25 15 -12 16 -12 10 4 -12 32 11 17 46 -30 20 -27 31 -50 26 -54 -6
-3 -5 -18 2 -38 9 -26 8 -35 -5 -50 -16 -17 -15 -19 21 -24 21 -4 46 -16 56
-29 10 -13 16 -16 12 -8 -4 8 8 -3 27 -24 35 -39 35 -39 42 -15 l7 24 12 -25
c6 -14 15 -28 20 -31 13 -9 -3 -38 -19 -32 -8 3 -14 0 -14 -7 0 -6 9 -14 19
-17 11 -3 20 -12 20 -21 1 -10 2 -26 3 -37 0 -11 -2 -29 -6 -40 -5 -12 -4 -15
1 -8 6 8 14 9 23 3 10 -7 11 -10 3 -10 -7 0 -13 -7 -13 -15 0 -8 4 -15 9 -15
11 0 9 -49 -3 -69 -6 -10 -5 -12 2 -7 7 4 12 1 12 -8 0 -15 -12 -21 -33 -17
-7 1 -1 -35 14 -75 4 -12 3 -26 -3 -32 -7 -7 -4 -19 8 -38 13 -19 15 -29 7
-31 -7 -3 -10 -10 -7 -18 3 -7 -2 -25 -12 -40 l-17 -27 -14 26 c-8 14 -20 26
-28 26 -8 0 -15 8 -15 18 0 14 -2 15 -10 2 -8 -12 -10 -12 -16 3 -3 9 -3 24 0
33 4 9 1 23 -5 31 -7 7 -13 45 -13 83 -1 72 -8 85 -26 50 -7 -14 -7 -20 0 -20
5 0 10 -8 10 -17 0 -14 -4 -12 -25 7 -14 13 -25 29 -25 37 0 7 -7 13 -15 13
-8 0 -15 -4 -15 -10 0 -5 4 -10 10 -10 5 0 9 -5 7 -12 -1 -7 5 -13 13 -13 8 0
14 -6 13 -13 -2 -7 2 -12 7 -12 6 0 10 -7 10 -15 0 -8 4 -15 8 -15 5 0 13 -27
18 -61 l10 -60 -45 3 c-40 3 -46 1 -46 -17 0 -14 -8 -21 -27 -23 -35 -4 -39
24 -5 31 l22 4 -23 2 c-13 0 -21 5 -18 10 3 4 -6 6 -19 3 -32 -6 -155 17 -155
29 0 5 10 7 23 5 53 -12 128 -26 134 -26 3 0 -7 11 -23 25 -16 14 -39 35 -51
47 -18 18 -24 19 -38 8 -12 -10 -13 -16 -4 -26 8 -10 8 -14 1 -14 -6 0 -14 5
-18 11 -4 7 -24 9 -53 5 -25 -3 -72 -2 -103 3 -37 5 -61 4 -68 -3 -17 -17 -11
-27 16 -24 15 2 29 -3 31 -9 3 -7 0 -13 -5 -13 -6 0 -32 -10 -59 -21 -56 -25
-103 -33 -103 -18 0 7 -21 10 -57 7 -61 -3 -93 11 -93 42 0 27 -53 50 -118 50
-33 0 -78 6 -100 14 -35 13 -43 12 -61 0 -12 -8 -21 -21 -21 -29 0 -14 -10
-18 -69 -30 -27 -6 -33 -4 -28 7 3 8 8 41 12 73 4 32 14 70 21 84 8 14 14 35
14 46 -1 20 -1 20 -16 0 -8 -11 -20 -20 -27 -20 -6 0 -13 -9 -15 -20 -2 -16
-1 -17 7 -5 5 8 13 11 17 7 8 -8 -15 -39 -25 -33 -4 3 -6 -29 -6 -70 0 -54 -3
-74 -13 -74 -10 0 -11 30 -7 138 6 164 9 180 37 229 21 36 21 37 2 21 -22 -20
-45 -25 -27 -7 6 6 9 17 7 24 -3 6 2 17 10 24 11 9 13 19 6 37 -5 13 -6 24 -1
24 9 0 11 9 14 65 1 22 6 43 12 47 15 11 1 18 -22 12 -29 -8 -37 -33 -18 -54
14 -15 13 -18 -3 -34 -31 -27 -40 -110 -40 -353 l1 -233 23 -15 c15 -10 24
-25 24 -42 0 -53 40 -162 73 -197 56 -59 175 -82 259 -49 76 29 103 57 138
138 25 63 29 79 19 92 -16 18 6 36 36 28 11 -2 30 -5 42 -5 19 0 22 -4 17 -29
-4 -20 5 -53 30 -111 41 -95 79 -150 104 -150 16 1 16 1 0 11 -32 18 -19 28
15 11 70 -35 185 -25 251 21 33 23 71 100 87 176 7 33 20 62 35 76 13 12 24
30 24 39 0 11 4 14 12 10 7 -5 34 -9 61 -10 46 -1 78 -16 64 -30 -3 -4 -32
-10 -64 -14 -33 -4 -45 -8 -27 -9 20 -1 35 -8 39 -18 16 -40 17 -189 2 -262
-9 -41 -14 -79 -11 -83 3 -5 1 -15 -5 -22 -6 -7 -13 -44 -15 -82 -5 -80 -15
-113 -27 -93 -6 10 -11 5 -19 -15 -6 -16 -8 -31 -5 -34 3 -3 5 -1 5 5 0 6 7
13 15 17 12 4 14 0 9 -22 -4 -15 -11 -31 -15 -36 -11 -13 -12 -76 -1 -76 5 0
5 -30 0 -66 -7 -47 -6 -75 3 -95 20 -50 4 -90 -71 -177 -60 -68 -232 -227
-324 -298 -15 -12 -48 -39 -72 -60 -25 -22 -60 -51 -77 -66 -18 -15 -56 -40
-86 -55 -62 -32 -98 -91 -108 -174 -3 -27 -10 -49 -15 -49 -11 0 -14 9 -28 83
-8 41 -16 57 -25 53 -15 -5 -28 31 -14 40 5 3 9 -3 9 -12 0 -10 3 -15 6 -11 3
3 -13 96 -36 208 -24 119 -38 204 -32 208 19 12 21 47 7 95 -8 28 -13 58 -9
68 3 10 1 18 -5 18 -7 0 -7 8 -1 26 9 22 8 25 -6 20 -12 -5 -15 0 -12 22 2 17
-2 26 -10 24 -6 -1 -12 2 -12 8 0 19 -2 25 -12 37 -11 14 -1 36 13 28 5 -4 4
6 -3 20 l-12 27 -9 -24 c-4 -12 -6 -31 -3 -40 5 -23 -10 -24 -18 -2 -4 9 -9
14 -12 11 -8 -8 -34 18 -34 32 0 6 -4 11 -9 11 -8 0 -24 37 -22 52 0 4 -9 10
-20 13 -14 5 -19 13 -16 26 3 10 2 17 -3 14 -8 -5 -17 30 -26 100 -3 22 -10
55 -15 72 -6 18 -8 43 -5 55 3 13 3 17 0 10 -11 -23 -24 -1 -24 41 0 23 -7 75
-15 115 -9 41 -13 89 -9 108 4 22 2 34 -5 34 -10 0 -15 -13 -13 -32 1 -3 -6
-9 -14 -12 -13 -5 -14 6 -8 87 4 66 3 100 -6 116 -11 22 -11 23 20 16 27 -6
31 -4 28 12 -5 25 -48 30 -65 7 -19 -26 -17 -191 4 -289 9 -44 16 -102 17
-128 1 -40 6 -53 28 -70 23 -19 28 -34 36 -97 18 -137 79 -259 167 -331 28
-23 53 -47 57 -53 4 -7 17 -60 28 -119 l22 -105 -40 -54 c-38 -52 -72 -110
-72 -124 0 -4 12 5 27 20 17 17 29 23 33 15 5 -7 9 -5 14 6 8 23 8 27 -4 20
-6 -3 -7 1 -4 10 6 14 9 15 21 2 9 -9 15 -41 17 -93 6 -159 19 -263 32 -268
16 -6 84 -146 84 -173 0 -22 18 -43 37 -43 9 0 13 16 13 49 0 28 4 52 9 56 5
3 7 20 4 39 -8 54 18 89 113 152 47 31 114 82 148 113 33 31 79 70 100 85 49
37 392 378 430 428 16 21 26 44 22 53 -9 23 -25 18 -38 -12 -9 -23 -12 -25
-15 -10 -3 13 -11 17 -24 14 -18 -5 -19 1 -16 93 1 54 5 96 8 94 8 -5 21 105
14 117 -4 5 -1 9 4 9 6 0 11 13 11 29 0 31 14 49 25 31 3 -5 22 -10 42 -10 41
0 93 47 93 84 0 12 7 31 15 42 8 10 14 24 14 29 0 6 -4 2 -10 -7 -11 -19 -29
-24 -29 -8 0 18 38 50 44 37 3 -7 3 -1 0 12 -3 13 -2 21 2 18 5 -3 9 7 9 21 0
15 4 40 8 55 5 19 4 27 -3 22 -6 -4 -10 7 -10 27 0 18 -5 40 -10 48 -6 10 -7
-9 -4 -55 4 -46 1 -83 -8 -109 -13 -41 -38 -60 -38 -31 0 14 -6 16 -27 10 -16
-4 -35 -8 -42 -9 -8 -2 -17 -8 -19 -14 -5 -15 24 -16 33 -2 13 21 43 10 48
-17 3 -16 8 -38 12 -50 6 -18 0 -30 -28 -58 -37 -37 -55 -42 -88 -25 -19 11
-22 49 -6 90 21 54 35 385 17 392 -6 2 -6 9 0 18 8 13 11 13 22 -2 19 -25 54
-13 71 25 26 56 38 350 19 465 -12 75 -52 152 -78 152 -8 0 -14 5 -14 10 0 6
-10 10 -22 11 -22 0 -22 1 -3 9 20 9 20 9 0 10 -27 2 -67 9 -83 15 -10 3 -10
10 -2 24 14 26 13 88 -2 97 -8 5 -9 2 -5 -9 3 -9 2 -19 -3 -22 -6 -4 -11 2
-12 12 -2 32 -4 38 -16 60 -7 12 -34 37 -60 54 -26 18 -49 36 -52 39 -3 4 -41
20 -85 35 -44 15 -85 32 -90 36 -6 4 -24 7 -40 6 -21 -2 -37 4 -53 21 -15 16
-30 22 -44 19 -12 -4 -28 2 -41 14 -23 21 -33 24 -42 9z m-274 -987 c107 -33
133 -68 117 -156 -23 -126 -83 -179 -200 -179 -144 1 -206 56 -216 194 -5 79
8 107 66 137 48 26 159 28 233 4z m-296 -12 c3 -5 1 -12 -5 -16 -13 -8 -50 3
-50 16 0 12 47 12 55 0z m940 -20 c61 -27 79 -67 65 -143 -26 -133 -77 -178
-205 -178 -60 0 -86 5 -115 21 -38 22 -75 71 -62 83 4 4 -1 12 -11 17 -9 6
-17 15 -17 22 0 7 4 6 10 -3 8 -12 10 -10 10 11 0 14 -7 34 -15 45 -24 31 -18
69 16 103 17 17 40 33 52 36 12 2 31 6 42 9 44 11 186 -3 230 -23z m-1001
-418 c4 -21 9 -46 12 -55 3 -10 1 -18 -5 -18 -6 0 -11 9 -11 19 0 11 -4 23
-10 26 -12 8 -13 65 -1 65 5 0 12 -17 15 -37z"/>
<path d="M1099 1908 c-8 -7 -22 -22 -29 -33 -10 -13 -3 -10 23 9 20 16 37 30
37 32 0 8 -17 3 -31 -8z"/>
<path d="M1263 1907 c11 -7 33 -24 50 -39 29 -25 47 -34 47 -25 0 11 -39 46
-67 61 -37 18 -57 21 -30 3z"/>
<path d="M1083 1853 c-29 -15 -53 -31 -53 -36 0 -15 62 1 84 22 29 28 42 26
50 -4 5 -20 13 -25 40 -25 25 0 35 6 44 25 10 22 14 24 32 13 11 -7 18 -19 15
-25 -3 -8 5 -13 21 -13 36 0 26 19 -21 44 -63 32 -148 32 -212 -1z"/>
<path d="M1060 1781 c0 -12 11 -23 31 -30 38 -13 128 -14 148 -2 8 5 -11 8
-52 7 -55 -1 -69 3 -89 22 -30 27 -38 28 -38 3z"/>
<path d="M1889 1858 c27 -31 41 -35 41 -13 0 8 -8 15 -18 15 -10 0 -24 6 -32
13 -8 6 -4 0 9 -15z"/>
<path d="M1648 1844 c-16 -8 -28 -22 -28 -32 0 -10 3 -13 8 -7 6 9 19 16 75
43 4 2 12 -10 18 -27 9 -25 17 -31 39 -31 18 0 35 8 44 22 l15 21 26 -25 c38
-39 88 -23 62 19 -4 7 -13 10 -20 7 -7 -2 -32 2 -56 11 -55 19 -148 19 -183
-1z"/>
<path d="M1651 1759 c29 -25 125 -53 147 -43 13 6 10 9 -13 11 -39 5 -85 23
-85 34 0 5 8 6 18 2 9 -3 14 -3 11 1 -4 4 -28 9 -54 11 l-47 4 23 -20z"/>
<path d="M1464 2865 c-4 -8 -15 -15 -25 -15 -10 0 -19 -4 -19 -10 0 -19 47 -6
57 17 7 13 7 23 2 23 -5 0 -12 -7 -15 -15z"/>
<path d="M1791 2785 c23 -20 50 -40 60 -46 11 -5 19 -15 19 -22 0 -7 9 -18 21
-25 17 -11 15 -5 -11 32 -17 25 -37 46 -45 46 -8 0 -15 4 -15 8 0 8 -53 42
-65 42 -4 0 12 -16 36 -35z"/>
<path d="M1725 2781 c2 -28 26 -54 38 -42 12 12 1 44 -13 36 -6 -4 -9 -1 -8 6
2 6 -2 13 -8 16 -6 2 -10 -5 -9 -16z"/>
<path d="M1600 2755 c-11 -13 -6 -17 26 -31 22 -9 48 -23 58 -32 18 -16 18
-16 5 6 -8 12 -27 26 -44 31 -19 5 -29 14 -29 24 2 21 0 21 -16 2z"/>
<path d="M1779 2678 l4 -43 8 35 c7 34 4 50 -9 50 -4 0 -6 -19 -3 -42z"/>
<path d="M1626 2664 c-3 -9 -2 -12 4 -9 6 3 13 -1 16 -9 3 -9 11 -13 17 -9 6
3 7 1 3 -5 -10 -17 2 -32 19 -25 22 8 18 18 -19 47 -28 21 -35 23 -40 10z"/>
<path d="M1860 2638 c0 -8 9 -24 20 -36 11 -12 20 -28 20 -36 0 -24 18 -28 25
-5 7 22 1 34 -18 34 -6 0 -14 11 -17 24 -6 27 -30 41 -30 19z"/>
<path d="M1005 2612 c-8 -21 -7 -22 20 -20 16 2 25 8 25 20 0 20 -37 21 -45 0z"/>
<path d="M1482 2610 c-15 -13 -93 -31 -104 -24 -16 10 -88 11 -88 2 0 -4 -13
-5 -28 -2 -21 4 -36 -1 -60 -21 -17 -14 -36 -24 -42 -20 -5 3 -10 1 -10 -5 0
-6 -11 -15 -25 -22 -13 -6 -22 -15 -19 -19 3 -5 -4 -9 -15 -9 -12 0 -21 -4
-21 -10 0 -5 -6 -10 -14 -10 -12 0 -60 -55 -61 -70 -1 -3 -6 -15 -13 -27 -11
-19 -10 -22 2 -17 9 3 18 14 21 25 10 30 55 79 74 79 9 0 33 14 53 30 51 43
113 68 153 63 18 -2 36 1 40 6 3 7 15 7 30 1 27 -10 133 -1 115 10 -16 10 12
20 57 20 30 0 33 2 20 14 -14 15 -50 18 -65 6z"/>
<path d="M1937 2566 c-4 -9 0 -22 8 -30 8 -7 12 -16 9 -19 -3 -2 2 -7 10 -10
10 -4 20 2 26 13 6 12 7 20 1 20 -5 0 -12 -6 -14 -12 -4 -9 -6 -8 -7 2 0 8 -7
23 -14 33 -12 15 -14 15 -19 3z"/>
<path d="M1988 2483 c6 -2 12 -11 12 -19 0 -9 5 -12 10 -9 6 3 10 -3 10 -14 0
-12 5 -21 12 -21 6 0 8 -3 5 -7 -4 -3 -2 -12 4 -19 5 -7 12 -25 15 -41 8 -43
24 -52 24 -13 0 61 -58 152 -95 149 -5 0 -4 -3 3 -6z"/>
<path d="M2115 2353 c3 -12 1 -24 -4 -27 -5 -4 -8 -25 -6 -49 4 -55 4 -54 14
-39 6 11 13 7 30 -14 11 -14 21 -35 21 -45 0 -10 5 -30 11 -46 10 -26 12 -26
19 -8 5 13 3 23 -6 28 -8 4 -14 13 -14 18 0 6 4 8 8 5 4 -2 14 -1 21 4 10 6 6
12 -15 26 -42 27 -52 43 -60 94 -3 25 -11 52 -16 60 -7 11 -7 9 -3 -7z"/>
<path d="M951 2284 c-17 -19 -28 -40 -25 -46 8 -13 50 34 57 64 7 25 4 23 -32
-18z"/>
<path d="M2198 1964 c-10 -15 14 -64 31 -64 12 0 11 3 -1 18 -9 9 -18 26 -20
37 -2 12 -6 16 -10 9z"/>
<path d="M2318 1851 c17 -11 32 -22 32 -24 0 -2 -15 -1 -34 1 -18 2 -37 -1
-40 -7 -5 -7 2 -11 16 -11 38 0 48 -19 49 -94 1 -60 2 -66 10 -41 11 35 6 163
-7 175 -5 4 -20 11 -34 15 -21 5 -20 3 8 -14z"/>
<path d="M2195 1691 c-3 -5 -1 -12 5 -16 6 -3 19 -23 31 -43 l20 -37 -5 38
c-7 53 -34 84 -51 58z"/>
<path d="M1367 1633 c-9 -17 -28 -40 -42 -51 -14 -11 -25 -23 -25 -27 0 -4
-13 -30 -30 -57 -30 -48 -37 -73 -22 -81 4 -3 31 -1 60 4 78 12 109 -4 54 -28
-15 -7 -28 -21 -29 -32 -2 -18 0 -19 35 -4 l37 15 -20 -23 -20 -23 25 16 c16
10 24 24 23 37 -2 15 3 21 18 21 11 0 17 4 14 10 -4 6 -15 8 -25 5 -13 -4 -24
2 -36 20 -19 28 -64 35 -64 9 0 -26 -35 -11 -38 17 -3 28 31 79 54 79 9 0 14
10 14 27 0 15 9 37 21 49 12 12 19 29 17 36 -3 8 -11 0 -21 -19z"/>
<path d="M1493 1453 c-26 -10 -12 -23 25 -23 21 0 43 -5 49 -11 7 -7 13 -7 17
-1 14 24 -55 50 -91 35z"/>
<path d="M2070 1446 c0 -7 -7 -19 -15 -26 -8 -7 -15 -19 -15 -26 0 -8 7 -14
15 -14 8 0 15 5 15 11 0 5 -6 7 -12 3 -10 -5 -10 -3 0 7 10 11 14 11 21 1 5
-8 8 1 8 23 0 19 -4 35 -9 35 -4 0 -8 -6 -8 -14z"/>
<path d="M1500 1380 c-8 -5 -18 -6 -22 -4 -4 3 -8 -2 -8 -10 0 -9 -7 -16 -16
-16 -11 0 -14 -5 -10 -16 4 -9 -1 -28 -9 -41 -18 -27 -12 -43 15 -43 23 0 29
17 19 52 -6 21 -3 33 11 50 11 13 19 18 20 13 0 -6 9 -11 21 -12 18 -2 19 0 8
15 -8 9 -14 18 -14 19 0 1 -7 -2 -15 -7z"/>
<path d="M1009 1338 c-1 -27 2 -83 6 -118 2 -14 4 -36 4 -50 1 -22 3 -23 12
-7 6 11 7 44 2 90 -4 39 -7 80 -5 90 1 9 -3 17 -8 17 -6 0 -10 -10 -11 -22z"/>
<path d="M1173 1352 c-34 -5 -63 -49 -63 -93 0 -21 5 -41 11 -44 16 -11 22 1
10 23 -13 25 16 86 44 90 14 2 16 1 7 -6 -11 -7 -11 -11 0 -19 21 -16 57 -22
65 -11 3 7 1 8 -5 4 -7 -4 -12 -2 -12 3 0 6 8 11 18 12 11 0 8 5 -11 13 -15 7
-25 15 -22 18 9 8 -17 14 -42 10z"/>
<path d="M1577 1310 c3 -12 -3 -22 -16 -29 -12 -7 -21 -16 -21 -22 0 -5 12 1
27 15 15 14 30 23 35 20 4 -3 5 3 1 12 -4 12 -3 15 5 10 7 -4 12 -3 12 2 0 5
-11 10 -24 10 -18 0 -22 -5 -19 -18z"/>
<path d="M1763 1306 c15 -14 27 -31 27 -38 0 -7 -7 -2 -16 10 -16 23 -34 29
-34 11 0 -5 4 -8 10 -4 5 3 16 -8 25 -25 14 -27 14 -30 -1 -30 -10 0 -14 -5
-10 -15 3 -8 1 -15 -4 -15 -6 0 -10 6 -10 13 0 8 -9 22 -20 32 -17 16 -20 16
-20 2 0 -25 -36 -31 -175 -27 -71 2 -169 3 -217 1 l-87 -2 -16 31 c-9 17 -21
30 -27 28 -15 -5 -20 -45 -8 -53 6 -4 8 -10 5 -15 -3 -5 4 -15 15 -23 11 -7
18 -16 15 -19 -10 -10 57 -69 72 -64 11 4 13 2 9 -9 -4 -11 1 -15 20 -15 14 0
23 -4 20 -9 -8 -12 47 -9 56 4 5 7 8 7 8 0 0 -5 4 -17 10 -25 7 -12 12 -10 29
9 17 20 21 21 21 7 0 -10 5 -14 11 -11 5 4 25 9 42 12 18 3 34 8 37 11 3 4 14
9 25 10 11 2 26 9 34 15 12 10 13 9 7 -3 -4 -9 -1 -8 7 3 8 9 18 17 22 17 8 0
45 39 45 48 0 2 -10 -3 -22 -12 -46 -33 -87 -45 -161 -47 -42 -1 -74 -5 -72
-9 3 -4 -3 -14 -12 -21 -14 -12 -15 -11 -9 7 6 20 2 22 -53 27 -61 5 -105 26
-122 59 -15 28 -6 31 36 13 21 -8 40 -13 43 -10 3 3 0 5 -7 5 -7 0 -10 4 -7 8
2 4 82 6 176 5 113 -2 178 0 192 8 30 16 64 -5 85 -53 21 -48 33 -49 23 -2 -9
40 -4 65 17 77 32 20 4 98 -39 104 -20 3 -20 2 5 -21z"/>
<path d="M1913 1265 c5 -51 17 -55 17 -7 0 23 -5 42 -10 42 -6 0 -9 -15 -7
-35z"/>
<path d="M1870 1202 c0 -13 -4 -20 -10 -17 -5 3 -10 1 -10 -4 0 -6 4 -11 9
-11 5 0 11 -8 13 -17 3 -11 6 -5 9 14 3 18 2 38 -3 45 -5 9 -8 6 -8 -10z"/>
<path d="M1060 1174 c-14 -7 -21 -14 -16 -14 5 0 3 -7 -4 -15 -10 -12 -8 -13
11 -10 23 5 39 21 39 43 0 6 -1 12 -2 11 -2 -1 -14 -7 -28 -15z"/>
<path d="M2025 1095 c-11 -27 -22 -40 -26 -33 -5 7 -14 -2 -25 -25 -22 -45
-36 -48 -23 -5 5 17 7 34 4 36 -6 6 -24 -41 -19 -49 2 -4 -3 -12 -11 -19 -8
-7 -15 -20 -16 -29 0 -12 -2 -13 -6 -2 -4 9 -10 3 -19 -18 -8 -18 -19 -31 -26
-29 -7 3 -20 -3 -30 -11 -10 -9 -22 -16 -26 -16 -4 0 -13 -4 -19 -8 -10 -6
-13 1 -13 25 0 23 -3 29 -9 19 -6 -9 -6 -24 0 -38 11 -30 11 -36 0 -29 -5 4
-12 0 -15 -6 -3 -7 -5 -1 -3 14 3 19 0 25 -10 21 -8 -3 -13 2 -13 13 0 9 -3
14 -7 11 -3 -4 0 -18 7 -32 12 -22 11 -27 -5 -45 -10 -11 -15 -20 -11 -20 4 0
1 -6 -6 -14 -9 -10 -15 -11 -20 -3 -4 7 -11 2 -17 -13 -5 -14 -10 -22 -10 -17
-1 11 -61 -22 -61 -33 0 -6 -4 -10 -10 -10 -5 0 -10 9 -10 21 0 11 -4 18 -9
15 -5 -4 -11 -3 -14 1 -2 5 -3 3 -1 -3 3 -13 -15 -34 -29 -34 -5 0 -4 7 3 15
6 8 10 20 7 27 -3 8 -6 6 -6 -6 -1 -13 -6 -16 -18 -11 -32 12 -53 14 -53 4 0
-6 -4 -7 -10 -4 -5 3 -10 1 -10 -5 0 -8 9 -10 25 -6 19 5 25 2 25 -9 0 -9 -4
-14 -8 -11 -5 3 -28 -1 -52 -8 -36 -10 -40 -14 -22 -18 12 -4 25 -2 28 3 3 5
18 9 35 9 16 0 29 4 29 8 0 12 79 13 86 1 4 -7 12 -5 22 4 10 8 28 18 42 22
33 11 100 65 100 82 0 8 4 12 9 9 5 -3 14 1 21 9 7 8 16 12 22 9 5 -3 24 6 43
20 18 14 36 26 40 26 9 0 111 104 118 120 4 10 6 11 6 2 2 -22 21 -2 21 21 0
13 9 29 19 36 11 8 18 23 15 34 -5 30 -8 29 -29 -18z"/>
<path d="M1067 1123 c-5 -4 48 -63 57 -63 3 0 6 7 6 15 0 8 -5 15 -11 15 -5 0
-8 3 -5 8 5 8 -40 33 -47 25z"/>
<path d="M1777 1074 c3 -9 1 -19 -6 -23 -8 -5 -7 -12 4 -27 13 -18 14 -18 8 5
-4 15 -2 22 4 18 6 -4 8 3 5 18 -2 14 -8 25 -13 25 -5 0 -6 -7 -2 -16z"/>
<path d="M1393 1014 c-16 -13 -16 -14 0 -8 9 3 24 1 32 -6 18 -15 73 -4 58 11
-16 16 -70 18 -90 3z"/>
<path d="M1168 993 c-10 -2 -18 -9 -18 -14 0 -6 5 -7 12 -3 8 5 9 2 5 -9 -3
-10 -2 -17 3 -17 6 0 10 7 10 16 0 8 4 12 10 9 6 -3 7 1 4 9 -3 9 -7 15 -8 15
0 -1 -9 -3 -18 -6z"/>
<path d="M1360 968 c0 -9 -15 -28 -32 -42 -18 -14 -27 -26 -21 -26 7 0 26 12
43 28 23 20 28 31 20 42 -8 13 -10 13 -10 -2z"/>
<path d="M1257 919 c-3 -11 -15 -23 -26 -26 -12 -3 -17 -11 -14 -19 3 -8 0
-14 -5 -14 -7 0 -8 -10 -2 -29 4 -16 5 -33 2 -37 -4 -4 -1 -4 6 0 8 5 11 17 8
31 -8 30 3 58 19 51 8 -3 16 2 19 10 3 9 10 12 16 9 15 -9 12 14 -4 30 -12 12
-15 11 -19 -6z"/>
<path d="M2235 900 c3 -19 17 -63 31 -98 14 -36 28 -81 32 -101 3 -19 14 -44
24 -55 10 -11 18 -23 18 -27 0 -3 -21 -24 -47 -45 -54 -42 -230 -218 -371
-367 l-92 -98 -62 48 c-74 56 -216 143 -235 143 -25 0 -13 -20 45 -78 54 -53
61 -57 86 -49 45 15 52 -11 13 -45 -33 -28 -31 -37 3 -16 17 11 22 10 29 -1 6
-9 11 -10 15 -2 10 15 49 14 72 -3 18 -14 17 -16 -26 -60 -35 -37 -40 -46 -25
-46 41 0 64 12 58 28 -5 11 -2 14 9 9 12 -4 15 0 11 16 -5 18 -3 20 8 10 18
-17 34 -17 20 0 -15 19 -1 30 17 14 13 -10 14 -8 8 11 -6 17 -4 21 8 16 12 -5
15 -2 9 12 -5 14 -3 16 11 11 14 -5 17 -3 12 8 -3 9 0 15 10 15 8 0 12 4 9 10
-7 12 26 14 41 3 5 -5 2 -1 -8 8 -21 20 -11 34 10 16 13 -10 15 -9 9 6 -7 19
35 72 47 60 3 -4 6 4 6 17 0 18 3 20 14 11 12 -10 13 -8 9 10 -5 18 -3 21 11
16 10 -4 15 -3 11 3 -8 13 42 63 55 55 5 -3 7 0 4 8 -6 18 21 41 37 31 8 -4 9
-3 5 4 -4 7 -2 12 4 12 7 0 10 7 6 15 -3 8 -1 15 5 15 5 0 21 12 34 26 14 15
25 24 25 21 0 -3 21 14 47 38 64 61 85 59 159 -10 33 -31 102 -86 154 -122 52
-37 97 -71 98 -75 2 -4 8 -8 14 -8 5 0 15 -6 23 -12 7 -7 26 -23 42 -35 16
-12 42 -34 57 -48 15 -14 31 -25 36 -25 5 0 15 -8 22 -18 16 -22 68 -62 79
-62 31 0 -32 69 -133 146 -35 27 -71 56 -82 66 -10 9 -79 56 -152 104 -94 61
-136 95 -140 111 -8 29 -50 63 -78 63 -34 0 -84 52 -92 96 -7 40 -20 77 -78
214 -3 8 -4 -1 -1 -20z"/>
<path d="M1300 876 c0 -8 5 -18 10 -21 6 -3 10 1 10 9 0 9 5 16 10 16 16 0 12
-27 -5 -34 -25 -9 -17 -23 15 -28 17 -3 30 -1 30 4 0 4 -4 8 -9 8 -5 0 -11 12
-13 28 -2 19 -9 28 -25 30 -15 2 -23 -2 -23 -12z"/>
<path d="M1366 782 c-10 -17 11 -42 30 -35 8 3 14 10 14 15 0 6 -6 8 -14 5 -9
-4 -16 1 -18 11 -3 13 -5 14 -12 4z"/>
<path d="M1311 538 c16 -30 58 -73 65 -65 3 3 -13 24 -36 47 -27 27 -37 33
-29 18z"/>
<path d="M2462 464 c24 -25 84 -78 133 -117 50 -39 96 -77 103 -84 14 -13 22
-17 22 -9 0 2 -37 35 -82 73 -46 37 -96 80 -113 95 -16 16 -33 28 -37 28 -5 0
-8 6 -8 13 0 16 -32 47 -48 47 -7 0 7 -21 30 -46z"/>
<path d="M995 387 c-24 -25 -62 -50 -90 -60 -100 -37 -162 -71 -251 -138 -49
-38 -96 -69 -103 -69 -13 0 -111 -99 -111 -112 0 -22 41 -3 71 33 19 23 56 52
83 66 27 14 56 32 64 40 31 31 154 105 204 124 63 23 78 24 78 5 0 -8 11 -28
25 -44 14 -17 25 -35 25 -41 0 -6 13 -23 29 -37 28 -24 29 -30 26 -90 -3 -65
-1 -71 24 -55 10 6 12 19 7 45 -4 20 -2 44 4 55 7 15 7 22 -3 28 -26 15 -107
135 -107 158 0 12 9 34 20 48 11 14 20 30 20 36 0 6 4 11 9 11 5 0 11 9 14 20
3 11 4 20 4 19 -1 0 -20 -20 -42 -42z"/>
<path d="M1000 308 c0 -16 47 -118 54 -118 3 0 1 12 -5 27 -6 15 -9 43 -7 63
3 30 0 35 -20 38 -13 2 -22 -2 -22 -10z"/>
<path d="M2731 244 c0 -5 47 -49 105 -99 57 -50 111 -96 119 -103 8 -7 15 -9
15 -5 0 5 -15 20 -32 33 -18 13 -51 40 -72 60 -22 19 -47 42 -56 50 -9 8 -31
28 -48 44 -18 17 -32 26 -31 20z"/>
<path d="M1070 170 c0 -5 9 -14 19 -19 10 -6 24 -24 29 -41 6 -16 18 -30 26
-30 8 0 20 -9 26 -19 12 -24 71 -54 82 -43 16 16 -31 62 -63 62 -25 0 -33 6
-44 33 -8 19 -20 38 -27 44 -20 16 -48 23 -48 13z"/>
<path d="M1462 120 c-80 -19 -101 -30 -57 -30 35 0 135 31 135 42 0 4 -1 8 -2
7 -2 -1 -36 -9 -76 -19z"/>
<path d="M1515 25 c-22 -14 -34 -25 -27 -25 18 0 72 32 72 42 0 11 1 11 -45
-17z"/>
</g>
</svg>
